<mxfile host="Electron" agent="Mozilla/5.0 (Windows NT 10.0; Win64; x64) AppleWebKit/537.36 (KHTML, like Gecko) draw.io/24.7.17 Chrome/128.0.6613.36 Electron/32.0.1 Safari/537.36" version="24.7.17">
  <diagram name="Page-1" id="RVR_PBTUCxfpO45RUen8">
    <mxGraphModel dx="1098" dy="820" grid="1" gridSize="10" guides="1" tooltips="1" connect="1" arrows="1" fold="1" page="1" pageScale="1" pageWidth="850" pageHeight="1100" math="0" shadow="0">
      <root>
        <mxCell id="0" />
        <mxCell id="1" parent="0" />
        <mxCell id="FadGF6nOf5Ab4tk_ODll-1" value="Game_Init()" style="rounded=0;whiteSpace=wrap;html=1;" vertex="1" parent="1">
          <mxGeometry x="120" y="340" width="120" height="60" as="geometry" />
        </mxCell>
        <mxCell id="FadGF6nOf5Ab4tk_ODll-2" value="" style="strokeWidth=2;html=1;shape=mxgraph.flowchart.annotation_2;align=left;labelPosition=right;pointerEvents=1;" vertex="1" parent="1">
          <mxGeometry x="240" y="320" width="70" height="100" as="geometry" />
        </mxCell>
        <mxCell id="FadGF6nOf5Ab4tk_ODll-3" value="var int type cash = 1000;&lt;div&gt;var int type pot = 0;&lt;/div&gt;" style="rounded=0;whiteSpace=wrap;html=1;" vertex="1" parent="1">
          <mxGeometry x="310" y="290" width="120" height="60" as="geometry" />
        </mxCell>
        <mxCell id="FadGF6nOf5Ab4tk_ODll-6" style="edgeStyle=orthogonalEdgeStyle;rounded=0;orthogonalLoop=1;jettySize=auto;html=1;exitX=1;exitY=0.25;exitDx=0;exitDy=0;entryX=0;entryY=0.5;entryDx=0;entryDy=0;" edge="1" parent="1" source="FadGF6nOf5Ab4tk_ODll-4" target="FadGF6nOf5Ab4tk_ODll-12">
          <mxGeometry relative="1" as="geometry">
            <mxPoint x="550" y="390" as="targetPoint" />
            <Array as="points">
              <mxPoint x="510" y="390" />
              <mxPoint x="510" y="310" />
              <mxPoint x="580" y="310" />
            </Array>
          </mxGeometry>
        </mxCell>
        <mxCell id="FadGF6nOf5Ab4tk_ODll-10" style="edgeStyle=orthogonalEdgeStyle;rounded=0;orthogonalLoop=1;jettySize=auto;html=1;exitX=1;exitY=0.75;exitDx=0;exitDy=0;" edge="1" parent="1" source="FadGF6nOf5Ab4tk_ODll-4">
          <mxGeometry relative="1" as="geometry">
            <mxPoint x="550" y="490" as="targetPoint" />
          </mxGeometry>
        </mxCell>
        <mxCell id="FadGF6nOf5Ab4tk_ODll-4" value="printf(&quot;Welcome To Blackjack! Would you like to start playing? y/n&quot;)&lt;span style=&quot;background-color: initial;&quot;&gt;&amp;nbsp;&lt;/span&gt;&lt;div&gt;&lt;div&gt;&lt;br&gt;&lt;/div&gt;&lt;/div&gt;" style="rounded=0;whiteSpace=wrap;html=1;" vertex="1" parent="1">
          <mxGeometry x="290" y="370" width="140" height="80" as="geometry" />
        </mxCell>
        <mxCell id="FadGF6nOf5Ab4tk_ODll-7" value="if y&lt;div&gt;&lt;br&gt;&lt;/div&gt;" style="text;html=1;align=center;verticalAlign=middle;whiteSpace=wrap;rounded=0;" vertex="1" parent="1">
          <mxGeometry x="440" y="355" width="60" height="30" as="geometry" />
        </mxCell>
        <mxCell id="FadGF6nOf5Ab4tk_ODll-8" value="if n&lt;div&gt;&lt;br&gt;&lt;/div&gt;" style="text;html=1;align=center;verticalAlign=middle;whiteSpace=wrap;rounded=0;" vertex="1" parent="1">
          <mxGeometry x="440" y="400" width="60" height="30" as="geometry" />
        </mxCell>
        <mxCell id="FadGF6nOf5Ab4tk_ODll-11" value="printf(&quot;Okay then :( goodbye&quot;)&lt;div&gt;return 0;&lt;/div&gt;" style="rounded=0;whiteSpace=wrap;html=1;" vertex="1" parent="1">
          <mxGeometry x="490" y="490" width="120" height="60" as="geometry" />
        </mxCell>
        <mxCell id="FadGF6nOf5Ab4tk_ODll-13" style="edgeStyle=orthogonalEdgeStyle;rounded=0;orthogonalLoop=1;jettySize=auto;html=1;exitX=1;exitY=0.75;exitDx=0;exitDy=0;" edge="1" parent="1" source="FadGF6nOf5Ab4tk_ODll-12">
          <mxGeometry relative="1" as="geometry">
            <mxPoint x="840" y="370" as="targetPoint" />
          </mxGeometry>
        </mxCell>
        <mxCell id="FadGF6nOf5Ab4tk_ODll-24" style="edgeStyle=orthogonalEdgeStyle;rounded=0;orthogonalLoop=1;jettySize=auto;html=1;exitX=1;exitY=0.25;exitDx=0;exitDy=0;entryX=0;entryY=0.5;entryDx=0;entryDy=0;" edge="1" parent="1" source="FadGF6nOf5Ab4tk_ODll-12" target="FadGF6nOf5Ab4tk_ODll-23">
          <mxGeometry relative="1" as="geometry" />
        </mxCell>
        <mxCell id="FadGF6nOf5Ab4tk_ODll-12" value="scanf(&quot;How much would you like to bet?\n&quot;, *cash);&lt;div&gt;NOTE: Need to be in multiplication of 10 or division of 10.&lt;/div&gt;" style="rounded=0;whiteSpace=wrap;html=1;" vertex="1" parent="1">
          <mxGeometry x="580" y="260" width="150" height="90" as="geometry" />
        </mxCell>
        <mxCell id="FadGF6nOf5Ab4tk_ODll-14" value="if cash &amp;lt; 10" style="text;html=1;align=center;verticalAlign=middle;whiteSpace=wrap;rounded=0;" vertex="1" parent="1">
          <mxGeometry x="760" y="290" width="60" height="30" as="geometry" />
        </mxCell>
        <mxCell id="FadGF6nOf5Ab4tk_ODll-17" style="edgeStyle=orthogonalEdgeStyle;rounded=0;orthogonalLoop=1;jettySize=auto;html=1;exitX=1;exitY=0.25;exitDx=0;exitDy=0;" edge="1" parent="1" source="FadGF6nOf5Ab4tk_ODll-15">
          <mxGeometry relative="1" as="geometry">
            <mxPoint x="990" y="360" as="targetPoint" />
          </mxGeometry>
        </mxCell>
        <mxCell id="FadGF6nOf5Ab4tk_ODll-15" value="printf(&quot;sorry, you&#39;re broke, would you like to restart? y/n&quot;);" style="rounded=0;whiteSpace=wrap;html=1;" vertex="1" parent="1">
          <mxGeometry x="780" y="370" width="120" height="60" as="geometry" />
        </mxCell>
        <mxCell id="FadGF6nOf5Ab4tk_ODll-18" value="return 0; and exits the program" style="rounded=0;whiteSpace=wrap;html=1;" vertex="1" parent="1">
          <mxGeometry x="930" y="450" width="120" height="60" as="geometry" />
        </mxCell>
        <mxCell id="FadGF6nOf5Ab4tk_ODll-19" value="recalls Gameinit to restart the program in order to rerun the game" style="rounded=0;whiteSpace=wrap;html=1;" vertex="1" parent="1">
          <mxGeometry x="940" y="300" width="120" height="60" as="geometry" />
        </mxCell>
        <mxCell id="FadGF6nOf5Ab4tk_ODll-21" value="" style="edgeStyle=orthogonalEdgeStyle;rounded=0;orthogonalLoop=1;jettySize=auto;html=1;exitX=1;exitY=0.75;exitDx=0;exitDy=0;entryX=0.5;entryY=0;entryDx=0;entryDy=0;" edge="1" parent="1" source="FadGF6nOf5Ab4tk_ODll-15" target="FadGF6nOf5Ab4tk_ODll-18">
          <mxGeometry relative="1" as="geometry">
            <mxPoint x="990" y="410" as="targetPoint" />
            <mxPoint x="900" y="415" as="sourcePoint" />
          </mxGeometry>
        </mxCell>
        <mxCell id="FadGF6nOf5Ab4tk_ODll-20" value="if n&lt;div&gt;&lt;br&gt;&lt;/div&gt;" style="text;html=1;align=center;verticalAlign=middle;whiteSpace=wrap;rounded=0;" vertex="1" parent="1">
          <mxGeometry x="910" y="390" width="60" height="30" as="geometry" />
        </mxCell>
        <mxCell id="FadGF6nOf5Ab4tk_ODll-22" value="&lt;div&gt;if y&lt;/div&gt;" style="text;html=1;align=center;verticalAlign=middle;whiteSpace=wrap;rounded=0;" vertex="1" parent="1">
          <mxGeometry x="910" y="360" width="60" height="30" as="geometry" />
        </mxCell>
        <mxCell id="FadGF6nOf5Ab4tk_ODll-23" value="" style="rounded=0;whiteSpace=wrap;html=1;" vertex="1" parent="1">
          <mxGeometry x="940" y="170" width="120" height="80" as="geometry" />
        </mxCell>
        <mxCell id="FadGF6nOf5Ab4tk_ODll-25" value="if cash &amp;gt;= 10" style="text;html=1;align=center;verticalAlign=middle;whiteSpace=wrap;rounded=0;" vertex="1" parent="1">
          <mxGeometry x="760" y="240" width="60" height="30" as="geometry" />
        </mxCell>
      </root>
    </mxGraphModel>
  </diagram>
</mxfile>
